<?xml version="1.0" encoding="UTF-8"?>
<svg width="128" height="64" version="1.1" viewBox="0 0 33.87 16.93" xmlns="http://www.w3.org/2000/svg">
 <g transform="translate(0 -280.1)" fill="none" stroke="#fff">
  <g transform="matrix(1 0 0 .9987 .07216 -.1988)">
   <path transform="matrix(.7897 -.4559 .4559 .7897 -127.4 68.46)" d="m20.62 289-3.331 1.923-3.331-1.923v-3.846l3.331-1.923 3.331 1.923z" stroke-width=".7644"/>
   <path transform="matrix(.7897 -.4559 .4559 .7897 -120.8 72.29)" d="m20.62 289-3.331 1.923-3.331-1.923v-3.846l3.331-1.923 3.331 1.923z" stroke-width=".7644"/>
   <path transform="matrix(.7897 -.4559 .4559 .7897 -115.4 66.52)" d="m20.62 289-3.331 1.923-3.331-1.923v-3.846l3.331-1.923 3.331 1.923z" stroke-width=".7644"/>
   <path transform="matrix(.5368 -.3099 .3099 .5368 -80.47 145.1)" d="m20.62 289-3.331 1.923-3.331-1.923v-3.846l3.331-1.923 3.331 1.923z" stroke-width="1.124"/>
  </g>
  <g transform="matrix(1.045 0 0 1.055 -.1691 -16.07)">
   <path d="m11.8 291.7-5.26 3.037-5.26-3.037 1e-7 -6.073 5.26-3.037 5.26 3.037z" stroke-width="1.207"/>
   <path d="m9.85 290.5-3.331 1.923-3.331-1.923 1e-7 -3.846 3.331-1.923 3.331 1.923z" stroke-width=".7644"/>
  </g>
 </g>
</svg>
